<svg width="81" height="80" viewBox="0 0 81 80" fill="none" xmlns="http://www.w3.org/2000/svg">
<g id="Group 4">
<g id="Group 39">
<g id="Group 6 Copy 3">
<g id="Shape 2 Copy">
<path id="Shape" fill-rule="evenodd" clip-rule="evenodd" d="M0 40C0 17.9086 18.088 0 40.4 0C62.712 0 80.8 17.9086 80.8 40C80.8 62.0914 62.712 80 40.4 80C18.088 80 0 62.0914 0 40ZM34.1632 54.6203L54.3633 42.1203C55.1012 41.6627 55.55 40.8617 55.55 40C55.55 39.1383 55.1012 38.3375 54.3633 37.8797L34.1632 25.3797C33.3848 24.8975 32.4033 24.8706 31.6007 25.3137C30.7981 25.7544 30.3 26.5906 30.3 27.5V52.5C30.3 53.4094 30.7981 54.2456 31.6007 54.6862C31.9823 54.8962 32.404 55 32.825 55C33.2898 55 33.7545 54.873 34.1632 54.6203Z" fill="#6161E8"/>
</g>
</g>
</g>
<path id="Path" fill-rule="evenodd" clip-rule="evenodd" d="M54.4988 42.2622L33.1676 55.595C32.736 55.8645 32.2452 56 31.7544 56C31.3098 56 30.8645 55.8893 30.4615 55.6653C29.614 55.1954 29.088 54.3034 29.088 53.3334V26.6678C29.088 25.6978 29.614 24.8059 30.4615 24.3359C31.3091 23.8632 32.3455 23.8919 33.1676 24.4062L54.4988 37.739C55.2781 38.2273 55.752 39.0815 55.752 40.0006C55.752 40.9197 55.2781 41.774 54.4988 42.2622Z" fill="white"/>
</g>
</svg>
