<svg width="343" height="179" viewBox="0 0 343 179" fill="none" xmlns="http://www.w3.org/2000/svg">
<g id="Group">
<rect id="Rectangle Copy 10" x="1" y="48" width="135" height="130" stroke="#324063"/>
<rect id="Rectangle" opacity="0.303688" x="52" y="64" width="110" height="99" fill="#6161E8"/>
<rect id="Rectangle Copy 11" x="70" y="1" width="135" height="130" stroke="#324063"/>
<circle id="Oval" cx="40.5" cy="9.5" r="8.5" fill="#B1EFEA"/>
<circle id="Oval Copy" opacity="0.508371" cx="197.5" cy="131.5" r="18.5" fill="#B1EFEA"/>
<g id="Read report">
<path d="M267.274 173H268.618V168.632H270.116L272.636 173H274.316L271.502 168.478C273 168.31 273.938 167.12 273.938 165.86C273.938 164.614 273.294 163.088 270.76 163.088H267.274V173ZM268.618 164.264H270.382C271.446 164.264 272.51 164.516 272.51 165.86C272.51 167.204 271.446 167.456 270.382 167.456H268.618V164.264ZM281.783 170.144V169.696C281.783 167.988 280.887 166.196 278.549 166.196C276.561 166.196 275.119 167.694 275.119 169.682C275.119 171.656 276.435 173.168 278.535 173.168C279.809 173.168 280.775 172.72 281.475 171.81L280.523 171.082C280.033 171.684 279.473 172.076 278.703 172.076C277.541 172.076 276.463 171.306 276.463 170.144H281.783ZM276.463 169.136C276.463 168.254 277.275 167.204 278.521 167.204C279.795 167.204 280.411 168.03 280.439 169.136H276.463ZM284.074 167.96C284.536 167.61 284.998 167.204 285.964 167.204C287.042 167.204 287.546 167.918 287.546 168.604V168.884H286.622C284.606 168.884 282.968 169.472 282.968 171.18C282.968 172.468 284.032 173.168 285.264 173.168C286.272 173.168 287.028 172.846 287.588 171.992H287.616C287.616 172.328 287.63 172.664 287.658 173H288.778C288.736 172.65 288.722 172.258 288.722 171.796V168.408C288.722 167.26 287.91 166.196 285.95 166.196C285.026 166.196 284.018 166.518 283.318 167.176L284.074 167.96ZM287.546 169.808V170.228C287.546 171.124 287.056 172.16 285.656 172.16C284.788 172.16 284.228 171.838 284.228 171.082C284.228 170.018 285.684 169.808 286.874 169.808H287.546ZM297.2 162.416H295.94V167.316H295.912C295.464 166.63 294.554 166.196 293.602 166.196C291.558 166.196 290.228 167.694 290.228 169.682C290.228 171.642 291.544 173.168 293.602 173.168C294.498 173.168 295.422 172.762 295.912 172.048H295.94V173H297.2V162.416ZM293.756 171.992C292.412 171.992 291.572 171.026 291.572 169.682C291.572 168.338 292.412 167.372 293.756 167.372C295.1 167.372 295.94 168.338 295.94 169.682C295.94 171.026 295.1 171.992 293.756 171.992ZM303.005 173H304.265V169.668C304.265 168.212 304.937 167.54 306.169 167.54C306.365 167.54 306.575 167.582 306.785 167.638L306.841 166.28C306.673 166.224 306.477 166.196 306.281 166.196C305.455 166.196 304.615 166.686 304.293 167.386H304.265V166.364H303.005V173ZM314.212 170.144V169.696C314.212 167.988 313.316 166.196 310.978 166.196C308.99 166.196 307.548 167.694 307.548 169.682C307.548 171.656 308.864 173.168 310.964 173.168C312.238 173.168 313.204 172.72 313.904 171.81L312.952 171.082C312.462 171.684 311.902 172.076 311.132 172.076C309.97 172.076 308.892 171.306 308.892 170.144H314.212ZM308.892 169.136C308.892 168.254 309.704 167.204 310.95 167.204C312.224 167.204 312.84 168.03 312.868 169.136H308.892ZM315.72 176.948H316.98V172.048H317.008C317.456 172.734 318.366 173.168 319.318 173.168C321.362 173.168 322.692 171.67 322.692 169.682C322.692 167.722 321.376 166.196 319.318 166.196C318.422 166.196 317.498 166.602 317.008 167.316H316.98V166.364H315.72V176.948ZM319.164 167.372C320.508 167.372 321.348 168.338 321.348 169.682C321.348 171.026 320.508 171.992 319.164 171.992C317.82 171.992 316.98 171.026 316.98 169.682C316.98 168.338 317.82 167.372 319.164 167.372ZM325.3 169.682C325.3 168.338 326.14 167.372 327.484 167.372C328.828 167.372 329.668 168.338 329.668 169.682C329.668 171.026 328.828 171.992 327.484 171.992C326.14 171.992 325.3 171.026 325.3 169.682ZM323.956 169.682C323.956 171.614 325.51 173.168 327.484 173.168C329.458 173.168 331.012 171.614 331.012 169.682C331.012 167.75 329.458 166.196 327.484 166.196C325.51 166.196 323.956 167.75 323.956 169.682ZM332.591 173H333.851V169.668C333.851 168.212 334.523 167.54 335.755 167.54C335.951 167.54 336.161 167.582 336.371 167.638L336.427 166.28C336.259 166.224 336.063 166.196 335.867 166.196C335.041 166.196 334.201 166.686 333.879 167.386H333.851V166.364H332.591V173ZM341.328 166.364H339.522V164.502H338.262V166.364H336.806V167.456H338.262V170.914C338.262 171.978 338.29 173.168 340.236 173.168C340.488 173.168 341.076 173.112 341.37 172.944V171.796C341.118 171.95 340.768 171.992 340.474 171.992C339.522 171.992 339.522 171.208 339.522 170.466V167.456H341.328V166.364Z" fill="#6161E8"/>
<path d="M266 174.4H342V175.1H266V174.4Z" fill="#6161E8"/>
</g>
</g>
</svg>
