<svg width="54" height="54" viewBox="0 0 54 54" fill="none" xmlns="http://www.w3.org/2000/svg">
<g id="Icon_CUSTOMERS">
<path id="Shape" fill-rule="evenodd" clip-rule="evenodd" d="M26.9775 18C26.9775 21.735 23.985 24.75 20.25 24.75C16.515 24.75 13.5 21.735 13.5 18C13.5 14.265 16.515 11.25 20.25 11.25C23.985 11.25 26.9775 14.265 26.9775 18ZM42.7275 21.375C42.7275 24.48 40.23 27 37.125 27C34.02 27 31.5 24.48 31.5 21.375C31.5 18.27 34.02 15.75 37.125 15.75C40.23 15.75 42.7275 18.27 42.7275 21.375ZM37.125 31.5C33.0075 31.5 24.75 33.57 24.75 37.6875V42.75H49.5V37.6875C49.5 33.57 41.2425 31.5 37.125 31.5ZM4.5 37.125C4.5 31.8825 15.0075 29.25 20.25 29.25C21.735 29.25 23.625 29.475 25.5825 29.88C20.9925 32.4225 20.25 35.775 20.25 37.6875V42.75H4.5V37.125Z" fill="#9090E7"/>
</g>
</svg>
