<svg width="54" height="54" viewBox="0 0 54 54" fill="none" xmlns="http://www.w3.org/2000/svg">
<g id="Icon_TICKETS">
<path id="Shape" fill-rule="evenodd" clip-rule="evenodd" d="M13.2359 42.3293L10.5652 45V9.3913L13.2359 12.0619L15.9065 9.3913L18.5772 12.0619L21.2478 9.3913L23.9185 12.0619L26.5891 9.3913L29.2598 12.0619L31.9304 9.3913L34.6011 12.0619L37.2717 9.3913L39.9424 12.0619L42.613 9.3913V45L39.9424 42.3293L37.2717 45L34.6011 42.3293L31.9304 45L29.2598 42.3293L26.5891 45L23.9185 42.3293L21.2478 45L18.5772 42.3293L15.9065 45L13.2359 42.3293ZM37.2717 18.2935V21.8543H15.9065V18.2935H37.2717ZM15.9065 25.4152V28.9761H37.2717V25.4152H15.9065ZM15.9065 32.5369V36.0978H37.2717V32.5369H15.9065Z" fill="#6161E8"/>
</g>
</svg>
