<svg width="161" height="44" viewBox="0 0 161 44" fill="none" xmlns="http://www.w3.org/2000/svg">
<g id="logo">
<g id="Group 9">
<g id="Group 8">
<rect id="Rectangle" x="0.297302" y="0.297241" width="13.0811" height="27.9459" fill="#B5C5FF"/>
<rect id="Rectangle Copy 14" x="40.1351" y="43.7026" width="13.0811" height="27.9459" transform="rotate(-180 40.1351 43.7026)" fill="#6161E8"/>
<rect id="Rectangle Copy 13" x="0.297302" y="28.2432" width="13.0811" height="14.8649" fill="#6161E8"/>
<rect id="Rectangle Copy 15" x="40.1351" y="15.7567" width="13.0811" height="14.8649" transform="rotate(-180 40.1351 15.7567)" fill="#B5EDE9"/>
<rect id="Rectangle_2" x="13.3784" y="14.5675" width="13.6757" height="13.6757" fill="#8FEEE7"/>
</g>
</g>
<path id="HARDRIGTH" fill-rule="evenodd" clip-rule="evenodd" d="M126.984 22.4319C126.984 25.8239 129.592 28.2239 133.08 28.2239C135.112 28.2239 136.76 27.4719 137.944 26.4959V21.4559H132.792V23.7279H135V25.0879C134.536 25.3919 133.96 25.5519 133.208 25.5519C131.432 25.5519 130.168 24.2559 130.168 22.4479V22.4159C130.168 20.7039 131.416 19.3439 133.032 19.3439C134.136 19.3439 134.936 19.7279 135.736 20.3999L137.56 18.2079C136.376 17.1839 134.984 16.5759 133.016 16.5759C129.544 16.5759 126.984 19.1359 126.984 22.3999V22.4319ZM73.272 27.9999L78.04 16.7199H81.032L85.8 27.9999H82.472L81.656 25.9999H77.336L76.536 27.9999H73.272ZM61.992 27.9999V16.7999H65.096V20.9919H69.08V16.7999H72.184V27.9999H69.08V23.7439H65.096V27.9999H61.992ZM80.76 23.5839H78.248L79.512 20.3999L80.76 23.5839ZM86.888 27.9999V16.7999H92.184C93.896 16.7999 95.08 17.2479 95.832 18.0159C96.488 18.6559 96.824 19.5199 96.824 20.6239V20.6559C96.824 22.3679 95.912 23.5039 94.52 24.0959L97.192 27.9999H93.608L91.352 24.6079H89.992V27.9999H86.888ZM92.04 22.1759H89.992V19.4879H92.024C93.064 19.4879 93.704 19.9359 93.704 20.8159V20.8479C93.704 21.6639 93.096 22.1759 92.04 22.1759ZM98.392 27.9999V16.7999H102.712C106.712 16.7999 109.032 19.1039 109.032 22.3359V22.3679C109.032 25.5999 106.68 27.9999 102.648 27.9999H98.392ZM102.76 25.2479H101.496V19.5519H102.76C104.616 19.5519 105.848 20.5919 105.848 22.3839V22.4159C105.848 24.2239 104.616 25.2479 102.76 25.2479ZM110.632 27.9999V16.7999H115.928C117.64 16.7999 118.824 17.2479 119.576 18.0159C120.232 18.6559 120.568 19.5199 120.568 20.6239V20.6559C120.568 22.3679 119.656 23.5039 118.264 24.0959L120.936 27.9999H117.352L115.096 24.6079H113.736V27.9999H110.632ZM115.784 22.1759H113.736V19.4879H115.768C116.808 19.4879 117.448 19.9359 117.448 20.8159V20.8479C117.448 21.6639 116.84 22.1759 115.784 22.1759ZM122.2 27.9999V16.7999H125.32V27.9999H122.2ZM142.248 27.9999V19.5199H138.888V16.7999H148.712V19.5199H145.352V27.9999H142.248ZM153.176 16.7999H150.072V27.9999H153.176V23.7439H157.16V27.9999H160.264V16.7999H157.16V20.9919H153.176V16.7999Z" fill="white"/>
</g>
</svg>
