<?xml version="1.0" encoding="utf-8"?>
<!-- Generator: Adobe Illustrator 25.0.1, SVG Export Plug-In . SVG Version: 6.00 Build 0)  -->
<svg version="1.1" id="Capa_1" xmlns="http://www.w3.org/2000/svg" xmlns:xlink="http://www.w3.org/1999/xlink" x="0px" y="0px"
	 viewBox="0 0 161 44" style="enable-background:new 0 0 161 44;" xml:space="preserve">
<style type="text/css">
	.st0{fill:#B5C5FF;}
	.st1{fill:#6161E8;}
	.st2{fill:#B5EDE9;}
	.st3{fill:#8FEEE7;}
	.st4{fill-rule:evenodd;clip-rule:evenodd;}
</style>
<g id="Group_9">
	<g id="Group_8">
		<rect id="Rectangle" x="0.3" y="0.3" class="st0" width="13.1" height="27.9"/>
		<rect id="Rectangle_Copy_14" x="27.1" y="15.8" class="st1" width="13.1" height="27.9"/>
		<rect id="Rectangle_Copy_13" x="0.3" y="28.2" class="st1" width="13.1" height="14.9"/>
		<rect id="Rectangle_Copy_15" x="27.1" y="0.9" class="st2" width="13.1" height="14.9"/>
		<rect id="Rectangle_2" x="13.4" y="14.6" class="st3" width="13.7" height="13.7"/>
	</g>
</g>
<path id="HARDRIGTH" class="st4" d="M127,22.4c0,3.4,2.6,5.8,6.1,5.8c2,0,3.7-0.8,4.9-1.7v-5h-5.2v2.3h2.2v1.4
	c-0.5,0.3-1,0.5-1.8,0.5c-1.8,0-3-1.3-3-3.1v0c0-1.7,1.2-3.1,2.9-3.1c1.1,0,1.9,0.4,2.7,1.1l1.8-2.2c-1.2-1-2.6-1.6-4.5-1.6
	C129.5,16.6,127,19.1,127,22.4L127,22.4z M73.3,28L78,16.7h3L85.8,28h-3.3l-0.8-2h-4.3l-0.8,2H73.3z M62,28V16.8h3.1V21h4v-4.2h3.1
	V28h-3.1v-4.3h-4V28H62z M80.8,23.6h-2.5l1.3-3.2L80.8,23.6z M86.9,28V16.8h5.3c1.7,0,2.9,0.4,3.6,1.2c0.7,0.6,1,1.5,1,2.6v0
	c0,1.7-0.9,2.8-2.3,3.4l2.7,3.9h-3.6l-2.3-3.4H90V28H86.9z M92,22.2h-2v-2.7h2c1,0,1.7,0.4,1.7,1.3v0C93.7,21.7,93.1,22.2,92,22.2z
	 M98.4,28V16.8h4.3c4,0,6.3,2.3,6.3,5.5v0c0,3.2-2.4,5.6-6.4,5.6H98.4z M102.8,25.2h-1.3v-5.7h1.3c1.9,0,3.1,1,3.1,2.8v0
	C105.8,24.2,104.6,25.2,102.8,25.2z M110.6,28V16.8h5.3c1.7,0,2.9,0.4,3.6,1.2c0.7,0.6,1,1.5,1,2.6v0c0,1.7-0.9,2.8-2.3,3.4l2.7,3.9
	h-3.6l-2.3-3.4h-1.4V28H110.6z M115.8,22.2h-2v-2.7h2c1,0,1.7,0.4,1.7,1.3v0C117.4,21.7,116.8,22.2,115.8,22.2z M122.2,28V16.8h3.1
	V28H122.2z M142.2,28v-8.5h-3.4v-2.7h9.8v2.7h-3.4V28H142.2z M153.2,16.8h-3.1V28h3.1v-4.3h4V28h3.1V16.8h-3.1V21h-4V16.8z"/>
</svg>
